<?xml version="1.0"?>
<svg width="350" height="350" xmlns="http://www.w3.org/2000/svg" xmlns:svg="http://www.w3.org/2000/svg" enable-background="new 0 0 350 350" version="1.1">
 <g class="layer">
  <title>Layer 1</title>
  <ellipse cx="175" cy="175" fill="#c94510" id="svg_8" rx="174" ry="174" stroke="#000000" stroke-width="0" transform="matrix(1 0 0 1 0 0)"/>
  <path d="m113.73,173.54l96.96,0c3.32,0 6,-2.69 6,-6s-2.68,-6 -6,-6l-96.95,0c-3.32,0 -6,2.69 -6,6s2.68,6 6,6l-0.01,0z" id="svg_5"/>
  <path d="m113.73,199.48l96.96,0c3.32,0 6,-2.69 6,-6s-2.68,-6 -6,-6l-96.95,0c-3.32,0 -6,2.68 -6,6s2.68,6 6,6l-0.01,0z" id="svg_6"/>
  <path d="m308.78,157.96c0,-1.59 -0.63,-3.12 -1.75,-4.24l-16.36,-16.36c-1.13,-1.12 -2.65,-1.75 -4.24,-1.75s-3.12,0.63 -4.25,1.75l-28.75,28.76l0,-88.12c0,-3.31 -2.69,-6 -6,-6l-170.43,0c-3.31,0 -6,2.69 -6,6l0,200.98c0,3.31 2.69,6 6,6l170.43,0c3.31,0 6,-2.69 6,-6l0,-63.18l53.6,-53.6c1.12,-1.12 1.75,-2.65 1.75,-4.24zm-225.78,115.02l0,-188.98l158.43,0l0,94.12l-35.29,35.29l-92.41,0c-3.31,0 -6,2.69 -6,6s2.69,6 6,6l80.41,0l-1.03,1.03c-0.78,0.78 -1.33,1.76 -1.59,2.82l-4.16,17.05l-25.15,0c-3.31,0 -6,2.69 -6,6s2.69,6 6,6c0,0 29.72,0 29.86,0c0.48,0 0.95,-0.05 1.43,-0.17l21.62,-5.27c1.07,-0.26 2.05,-0.81 2.83,-1.59l23.48,-23.48l0,45.18l-158.43,0zm127.65,-31.37l-10.41,2.54l2.54,-10.41l83.65,-83.65l7.87,7.87l-83.65,83.65z" id="svg_7"/>
  <text fill="#000000" font-family="Helvetica" font-size="55" font-weight="bold" id="svg_1" letter-spacing="4" stroke-width="0" text-anchor="middle" x="149" xml:space="preserve" y="146">CV</text>
 </g>
</svg>