<svg clip-rule="evenodd" fill-rule="evenodd" height="6.82666in" image-rendering="optimizeQuality" shape-rendering="geometricPrecision" text-rendering="geometricPrecision" viewBox="0 0 6.82666 6.82666" width="6.82666in" xmlns="http://www.w3.org/2000/svg"><circle cx="3.41333" cy="3.41333" fill="#c94510" r="3.41333"/><g fill="#fffffe"><path d="m2.74541 3.45053c-.12028-.139492-.224567-.328602-.25972-.509642l-.00387795-.0199882.0145039-.0142874c.118217-.116449.185799-.293492.235543-.448138l.00867717-.0269764.0283307.00065354c.114429.00263386.229504.00780709.343327.0201732.0915827.00994882.183094.0247717.272087.0488976.159913.0433465.29072.112776.421909.213634l.0156535.0120354-.00086614.0197244c-.00976378.222358-.101504.470539-.229374.652882-.0463858.0661496-.099748.133201-.165618.180917-.00295669.00214173-.00582677.00440157-.00860236.00677165-.0765197.0654331-.171449.103299-.2725.103299-.10115 0-.19872-.0523661-.27376-.116811-.00167323-.00143701-.00338189-.00282677-.00512205-.00417717-.0445354-.0344921-.0838819-.0764016-.120591-.118969zm-.0073189.58963c.137882-.0592126.17224-.119661.180161-.299138.0743858.0402165.15111.0633543.22663.0633543.079189 0 .154866-.019626.22585-.0544606.00653937.176764.0373189.230122.176772.289449.0359646-.0267638.072374-.0528937.109295-.0777835.0352677-.0237717.099626-.0679331.149472-.0775079v-.173961c0-.0523898.0425118-.0949016.0949016-.0949016h.389972c-.00513386-.563783-.0464134-1.20646-.310807-1.63102-.092685-.148843-.206244-.25828-.34561-.330866-.13815-.0719606-.299807-.106669-.489846-.106669-.190028 0-.351669.0347087-.489823.106669-.139362.0725866-.252929.182024-.345626.330866-.155465.249665-.239787.639752-.285043 1.04285-.0385315.343205-.0489646.713524-.0511024.999343.0382244-.0239409.0802323-.0419173.124701-.0530394.0268622-.00671654.0538622-.0151102.0804961-.0227874.0398346-.0114764.0797638-.0226575.119992-.032685.0468661-.0116772.0958622-.0226457.143913-.0277756.0412874-.00440157.093622-.00598819.128213.0207244l.167488.129331z"/><path d="m2.37559 5.19089h1.43067v-1.24844c-.122295.0394528-.573252.420638-.658205.486236l-.612264-.472783c-.0546102-.0473071-.347307.0535236-.424004.0727008-.0835945.0209016-.154728.0689173-.205047.133354-.0503976.0645472-.0797756.145197-.0797756.23126v.797681h.473287c.0134016-.129929.0268031-.259858.0402047-.389787l.0351299.389783z"/><path d="m4.99969 5.24204v-1.53192c0-.0209646-.0169961-.0379606-.0379606-.0379606h-1.06056c-.0209646 0-.0379646.0169961-.0379646.0379606v1.53192c0 .0209646.017.0379646.0379646.0379646h1.06056c.0209646 0 .0379606-.017.0379606-.0379646zm-.707059-1.19879c.0209606 0 .0379606.017.0379606.0379606 0 .0209646-.017.0379646-.0379606.0379646h-.216146c-.0209646 0-.0379646-.017-.0379646-.0379646 0-.0209606.017-.0379606.0379646-.0379606zm-.216146.144933h.709929c.0209646 0 .0379646.0169961.0379646.0379606 0 .0209646-.017.0379606-.0379646.0379606h-.709929c-.0209646 0-.0379646-.0169961-.0379646-.0379606 0-.0209646.017-.0379606.0379646-.0379606zm0 .144134h.709929c.0209646 0 .0379646.0169961.0379646.0379606 0 .0209646-.017.0379606-.0379646.0379606h-.709929c-.0209646 0-.0379646-.0169961-.0379646-.0379606 0-.0209646.017-.0379606.0379646-.0379606zm0-.433201h.216146c.0209606 0 .0379606.017.0379606.0379606 0 .0209646-.017.0379646-.0379606.0379646h-.216146c-.0209646 0-.0379646-.017-.0379646-.0379646 0-.0209606.017-.0379606.0379646-.0379606zm0 .724547h.709929c.0209646 0 .0379646.0169961.0379646.0379606 0 .0209646-.017.0379606-.0379646.0379606h-.709929c-.0209646 0-.0379646-.0169961-.0379646-.0379606 0-.0209646.017-.0379606.0379646-.0379606zm0 .140067h.709929c.0209646 0 .0379646.017.0379646.0379606 0 .0209646-.017.0379646-.0379646.0379646h-.709929c-.0209646 0-.0379646-.017-.0379646-.0379646 0-.0209606.017-.0379606.0379646-.0379606zm0 .21565h.216146c.0209606 0 .0379606.017.0379606.0379646 0 .0209606-.017.0379606-.0379606.0379606h-.216146c-.0209646 0-.0379646-.017-.0379646-.0379606 0-.0209646.017-.0379646.0379646-.0379646z"/></g></svg>